REM DIRINDEX 1\2\6,1\2\7,1\2\8,1\2\9,1\3\10,1\3\11,1\4\12,1\4\13,1\4\14,1\5\15,1\5\16,1\5\17
REM DIRNAME folder01,folder02,folder03,folder04,folder05,folder06,folder07,folder08,folder09,folder10,folder11,folder12,folder13,folder14,folder15,folder16,folder17
TITLE ""
FILE "1400_3_sec03_0201_0215.mp3" MP3
  TRACK 01 AUDIO
    TITLE "0:"
    INDEX 01 00:00:00
  TRACK 02 AUDIO
    TITLE "15:cjc029_4829"
    INDEX 01 00:00:15
  TRACK 03 AUDIO
    TITLE "0:"
    INDEX 01 00:01:56
  TRACK 04 AUDIO
    TITLE "17:cjc029_4830"
    INDEX 01 00:02:63
  TRACK 05 AUDIO
    TITLE "0:"
    INDEX 01 00:04:21
  TRACK 06 AUDIO
    TITLE "16:cjc029_4831"
    INDEX 01 00:04:27
  TRACK 07 AUDIO
    TITLE "0:"
    INDEX 01 00:05:46
  TRACK 08 AUDIO
    TITLE "17:cjc029_4832"
    INDEX 01 00:06:28
  TRACK 09 AUDIO
    TITLE "0:"
    INDEX 01 00:08:13
  TRACK 10 AUDIO
    TITLE "16:cjc029_4833"
    INDEX 01 00:08:17
  TRACK 11 AUDIO
    TITLE "0:"
    INDEX 01 00:09:32
  TRACK 12 AUDIO
    TITLE "17:cjc029_4834"
    INDEX 01 00:10:16
  TRACK 13 AUDIO
    TITLE "0:"
    INDEX 01 00:13:00
  TRACK 14 AUDIO
    TITLE "16:cjc029_4835"
    INDEX 01 00:13:06
  TRACK 15 AUDIO
    TITLE "0:"
    INDEX 01 00:14:27
  TRACK 16 AUDIO
    TITLE "17:cjc029_4836"
    INDEX 01 00:15:11
  TRACK 17 AUDIO
    TITLE "0:"
    INDEX 01 00:16:40
  TRACK 18 AUDIO
    TITLE "16:cjc029_4837"
    INDEX 01 00:16:46
  TRACK 19 AUDIO
    TITLE "0:"
    INDEX 01 00:17:74
  TRACK 20 AUDIO
    TITLE "17:cjc029_4838"
    INDEX 01 00:18:60
  TRACK 21 AUDIO
    TITLE "0:"
    INDEX 01 00:20:20
  TRACK 22 AUDIO
    TITLE "16:cjc029_4839"
    INDEX 01 00:20:24
  TRACK 23 AUDIO
    TITLE "0:"
    INDEX 01 00:21:33
  TRACK 24 AUDIO
    TITLE "17:cjc029_4840"
    INDEX 01 00:22:17
  TRACK 25 AUDIO
    TITLE "0:"
    INDEX 01 00:23:22
  TRACK 26 AUDIO
    TITLE "16:cjc029_4841"
    INDEX 01 00:23:26
  TRACK 27 AUDIO
    TITLE "0:"
    INDEX 01 00:24:33
  TRACK 28 AUDIO
    TITLE "17:cjc029_4842"
    INDEX 01 00:25:17
  TRACK 29 AUDIO
    TITLE "0:"
    INDEX 01 00:26:50
  TRACK 30 AUDIO
    TITLE "16:cjc029_4843"
    INDEX 01 00:26:52
  TRACK 31 AUDIO
    TITLE "0:"
    INDEX 01 00:27:57
  TRACK 32 AUDIO
    TITLE "17:cjc029_4844"
    INDEX 01 00:28:41
  TRACK 33 AUDIO
    TITLE "0:"
    INDEX 01 00:29:56
  TRACK 34 AUDIO
    TITLE "16:cjc029_4845"
    INDEX 01 00:29:60
  TRACK 35 AUDIO
    TITLE "0:"
    INDEX 01 00:30:59
  TRACK 36 AUDIO
    TITLE "17:cjc029_4846"
    INDEX 01 00:31:41
  TRACK 37 AUDIO
    TITLE "0:"
    INDEX 01 00:33:54
  TRACK 38 AUDIO
    TITLE "16:cjc029_4847"
    INDEX 01 00:33:58
  TRACK 39 AUDIO
    TITLE "0:"
    INDEX 01 00:34:65
  TRACK 40 AUDIO
    TITLE "17:cjc029_4848"
    INDEX 01 00:35:49
  TRACK 41 AUDIO
    TITLE "0:"
    INDEX 01 00:38:20
  TRACK 42 AUDIO
    TITLE "16:cjc029_4849"
    INDEX 01 00:38:28
  TRACK 43 AUDIO
    TITLE "0:"
    INDEX 01 00:39:43
  TRACK 44 AUDIO
    TITLE "17:cjc029_4850"
    INDEX 01 00:40:28
  TRACK 45 AUDIO
    TITLE "0:"
    INDEX 01 00:41:65
  TRACK 46 AUDIO
    TITLE "16:cjc029_4851"
    INDEX 01 00:41:71
  TRACK 47 AUDIO
    TITLE "0:"
    INDEX 01 00:43:07
  TRACK 48 AUDIO
    TITLE "17:cjc029_4852"
    INDEX 01 00:43:62
  TRACK 49 AUDIO
    TITLE "0:"
    INDEX 01 00:45:04
  TRACK 50 AUDIO
    TITLE "16:cjc029_4853"
    INDEX 01 00:45:10
  TRACK 51 AUDIO
    TITLE "0:"
    INDEX 01 00:46:23
  TRACK 52 AUDIO
    TITLE "17:cjc029_4854"
    INDEX 01 00:47:05
  TRACK 53 AUDIO
    TITLE "0:"
    INDEX 01 00:48:30
  TRACK 54 AUDIO
    TITLE "16:cjc029_4855"
    INDEX 01 00:48:36
  TRACK 55 AUDIO
    TITLE "0:"
    INDEX 01 00:49:41
  TRACK 56 AUDIO
    TITLE "17:cjc029_4856"
    INDEX 01 00:50:25
  TRACK 57 AUDIO
    TITLE "0:"
    INDEX 01 00:51:62
  TRACK 58 AUDIO
    TITLE "16:cjc029_4857"
    INDEX 01 00:51:65
  TRACK 59 AUDIO
    TITLE "0:"
    INDEX 01 00:53:15
  TRACK 60 AUDIO
    TITLE "17:cjc029_4858"
    INDEX 01 00:53:72
  TRACK 61 AUDIO
    TITLE "0:"
    INDEX 01 00:55:36
  TRACK 62 AUDIO
    TITLE "16:cjc029_4859"
    INDEX 01 00:55:40
  TRACK 63 AUDIO
    TITLE "0:"
    INDEX 01 00:56:61
